<?xml version="1.0" encoding="UTF-8"?>
<svg width="32px" height="32px" viewBox="0 0 32 32" version="1.1" xmlns="http://www.w3.org/2000/svg">
    <title>File Translation Icon</title>
    <g stroke="none" stroke-width="1" fill="none" fill-rule="evenodd">
        <!-- Background Document -->
        <path d="M18,2 L24,8 L24,26 C24,27.1045695 23.1045695,28 22,28 L6,28 C4.8954305,28 4,27.1045695 4,26 L4,4 C4,2.8954305 4.8954305,2 6,2 L18,2 Z" fill="#E0E0E0" fill-rule="nonzero"/>
        <path d="M18,2 L18,8 L24,8 L18,2 Z" fill="#BDBDBD" fill-rule="nonzero"/>
        
        <!-- Foreground Document -->
        <path d="M26,6 L26,30 C26,31.1045695 25.1045695,32 24,32 L8,32 C6.8954305,32 6,31.1045695 6,30 L6,8 C6,6.8954305 6.8954305,6 8,6 L26,6 Z" fill="#4285F4" fill-rule="nonzero"/>
        <path d="M20,6 L20,12 L26,12 L20,6 Z" fill="#2A75F3" fill-rule="nonzero"/>
        
        <!-- Translation Symbol -->
        <g transform="translate(10.000000, 16.000000)" fill="#FFFFFF">
            <path d="M12,0 L12,2 L7,2 L7,4 L10,4 L10,6 L7,6 L7,10 L5,10 L5,6 L2,6 L2,4 L5,4 L5,2 L0,2 L0,0 L12,0 Z"/>
            <path d="M9,8 L12,12 L6,12 L9,8 Z"/>
        </g>
    </g>
</svg>
